<mxfile host="Electron" modified="2023-09-28T13:36:32.080Z" agent="Mozilla/5.0 (Macintosh; Intel Mac OS X 10_15_7) AppleWebKit/537.36 (KHTML, like Gecko) draw.io/21.8.2 Chrome/114.0.5735.289 Electron/25.8.1 Safari/537.36" etag="eDnFJmTCj3AEn3te4pwy" version="21.8.2" type="device">
  <diagram id="C5RBs43oDa-KdzZeNtuy" name="Page-1">
    <mxGraphModel dx="1060" dy="666" grid="1" gridSize="10" guides="1" tooltips="1" connect="1" arrows="1" fold="1" page="1" pageScale="1" pageWidth="827" pageHeight="1169" background="#145d44" math="0" shadow="0">
      <root>
        <mxCell id="WIyWlLk6GJQsqaUBKTNV-0" />
        <mxCell id="WIyWlLk6GJQsqaUBKTNV-1" parent="WIyWlLk6GJQsqaUBKTNV-0" />
        <mxCell id="WIyWlLk6GJQsqaUBKTNV-2" value="" style="rounded=0;html=1;jettySize=auto;orthogonalLoop=1;fontSize=11;endArrow=block;endFill=0;endSize=8;strokeWidth=1;shadow=0;labelBackgroundColor=none;edgeStyle=orthogonalEdgeStyle;entryX=0;entryY=0.5;entryDx=0;entryDy=0;strokeColor=#DDA15E;fontColor=default;" parent="WIyWlLk6GJQsqaUBKTNV-1" source="WIyWlLk6GJQsqaUBKTNV-3" target="UN8iPi8M0M4lKCketsCk-2" edge="1">
          <mxGeometry relative="1" as="geometry">
            <mxPoint x="225" y="190" as="targetPoint" />
          </mxGeometry>
        </mxCell>
        <mxCell id="WIyWlLk6GJQsqaUBKTNV-3" value="Фотоловушка 2" style="rounded=1;whiteSpace=wrap;html=1;fontSize=12;glass=0;strokeWidth=1;shadow=0;labelBackgroundColor=none;fillColor=#BC6C25;strokeColor=#DDA15E;fontColor=#FEFAE0;" parent="WIyWlLk6GJQsqaUBKTNV-1" vertex="1">
          <mxGeometry x="45" y="170" width="120" height="40" as="geometry" />
        </mxCell>
        <mxCell id="UN8iPi8M0M4lKCketsCk-0" value="Фотоловушка 3" style="rounded=1;whiteSpace=wrap;html=1;fontSize=12;glass=0;strokeWidth=1;shadow=0;labelBackgroundColor=none;fillColor=#BC6C25;strokeColor=#DDA15E;fontColor=#FEFAE0;" vertex="1" parent="WIyWlLk6GJQsqaUBKTNV-1">
          <mxGeometry x="45" y="210" width="120" height="40" as="geometry" />
        </mxCell>
        <mxCell id="UN8iPi8M0M4lKCketsCk-1" value="Фотоловушка 1" style="rounded=1;whiteSpace=wrap;html=1;fontSize=12;glass=0;strokeWidth=1;shadow=0;labelBackgroundColor=none;fillColor=#BC6C25;strokeColor=#DDA15E;fontColor=#FEFAE0;" vertex="1" parent="WIyWlLk6GJQsqaUBKTNV-1">
          <mxGeometry x="45" y="130" width="120" height="40" as="geometry" />
        </mxCell>
        <mxCell id="UN8iPi8M0M4lKCketsCk-2" value="Работник заповедника" style="rounded=1;whiteSpace=wrap;html=1;fontSize=12;glass=0;strokeWidth=1;shadow=0;labelBackgroundColor=none;fillColor=#BC6C25;strokeColor=#DDA15E;fontColor=#FEFAE0;" vertex="1" parent="WIyWlLk6GJQsqaUBKTNV-1">
          <mxGeometry x="245" y="170" width="120" height="40" as="geometry" />
        </mxCell>
        <mxCell id="UN8iPi8M0M4lKCketsCk-5" value="SD card" style="text;html=1;strokeColor=none;fillColor=#423e47;align=center;verticalAlign=middle;whiteSpace=wrap;rounded=0;labelBackgroundColor=none;fontColor=#FEFAE0;" vertex="1" parent="WIyWlLk6GJQsqaUBKTNV-1">
          <mxGeometry x="175" y="150" width="60" height="30" as="geometry" />
        </mxCell>
        <mxCell id="UN8iPi8M0M4lKCketsCk-6" value="" style="rounded=0;html=1;jettySize=auto;orthogonalLoop=1;fontSize=11;endArrow=block;endFill=0;endSize=8;strokeWidth=1;shadow=0;labelBackgroundColor=none;edgeStyle=orthogonalEdgeStyle;entryX=0;entryY=0.5;entryDx=0;entryDy=0;strokeColor=#DDA15E;fontColor=default;" edge="1" parent="WIyWlLk6GJQsqaUBKTNV-1">
          <mxGeometry relative="1" as="geometry">
            <mxPoint x="365" y="189.51999999999998" as="sourcePoint" />
            <mxPoint x="445" y="189.51999999999998" as="targetPoint" />
          </mxGeometry>
        </mxCell>
        <mxCell id="UN8iPi8M0M4lKCketsCk-7" value="Ручная загрузка фотографий через интерфейс программы на ПК" style="text;html=1;strokeColor=none;fillColor=#423e47;align=center;verticalAlign=middle;whiteSpace=wrap;rounded=0;labelBackgroundColor=none;fontColor=#FEFAE0;gradientColor=none;" vertex="1" parent="WIyWlLk6GJQsqaUBKTNV-1">
          <mxGeometry x="355" y="60" width="100" height="90" as="geometry" />
        </mxCell>
        <mxCell id="UN8iPi8M0M4lKCketsCk-8" value="Сервер" style="rounded=1;whiteSpace=wrap;html=1;fontSize=12;glass=0;strokeWidth=1;shadow=0;labelBackgroundColor=none;fillColor=#BC6C25;strokeColor=#DDA15E;fontColor=#FEFAE0;" vertex="1" parent="WIyWlLk6GJQsqaUBKTNV-1">
          <mxGeometry x="445" y="170" width="120" height="40" as="geometry" />
        </mxCell>
        <mxCell id="UN8iPi8M0M4lKCketsCk-9" value="Обработка каждого изображения обученной нейросетью" style="text;html=1;strokeColor=none;fillColor=#423e47;align=center;verticalAlign=middle;whiteSpace=wrap;rounded=0;labelBackgroundColor=none;fontColor=#FEFAE0;fillStyle=auto;gradientColor=none;" vertex="1" parent="WIyWlLk6GJQsqaUBKTNV-1">
          <mxGeometry x="465" y="80" width="100" height="90" as="geometry" />
        </mxCell>
        <mxCell id="UN8iPi8M0M4lKCketsCk-11" value="Каждый снимок имеет в себе информацию о времени, дате снимка и номер фотоловушки с которой он был сделан" style="text;html=1;strokeColor=none;fillColor=#423e47;align=center;verticalAlign=middle;whiteSpace=wrap;rounded=0;labelBackgroundColor=none;fontColor=#FEFAE0;" vertex="1" parent="WIyWlLk6GJQsqaUBKTNV-1">
          <mxGeometry x="40" y="260" width="130" height="120" as="geometry" />
        </mxCell>
        <mxCell id="UN8iPi8M0M4lKCketsCk-17" value="Так как каждый раз SD карты очищаются, то мы имеем набор снимков за определенный период, например:&lt;br&gt;30.05.2023 - 30.06.2023" style="rounded=0;whiteSpace=wrap;html=1;labelBackgroundColor=none;fillColor=#BC6C25;strokeColor=#DDA15E;fontColor=#FEFAE0;" vertex="1" parent="WIyWlLk6GJQsqaUBKTNV-1">
          <mxGeometry x="215" y="300" width="130" height="140" as="geometry" />
        </mxCell>
        <mxCell id="UN8iPi8M0M4lKCketsCk-21" value="" style="endArrow=none;html=1;rounded=0;labelBackgroundColor=none;strokeColor=#DDA15E;fontColor=default;" edge="1" parent="WIyWlLk6GJQsqaUBKTNV-1">
          <mxGeometry width="50" height="50" relative="1" as="geometry">
            <mxPoint x="565" y="190" as="sourcePoint" />
            <mxPoint x="605" y="190" as="targetPoint" />
          </mxGeometry>
        </mxCell>
        <mxCell id="UN8iPi8M0M4lKCketsCk-22" value="" style="endArrow=classic;html=1;rounded=0;labelBackgroundColor=none;strokeColor=#DDA15E;fontColor=default;" edge="1" parent="WIyWlLk6GJQsqaUBKTNV-1">
          <mxGeometry width="50" height="50" relative="1" as="geometry">
            <mxPoint x="605" y="190" as="sourcePoint" />
            <mxPoint x="605" y="240" as="targetPoint" />
          </mxGeometry>
        </mxCell>
        <mxCell id="UN8iPi8M0M4lKCketsCk-23" value="ПК работника" style="rounded=1;whiteSpace=wrap;html=1;fontSize=12;glass=0;strokeWidth=1;shadow=0;labelBackgroundColor=none;fillColor=#BC6C25;strokeColor=#DDA15E;fontColor=#FEFAE0;" vertex="1" parent="WIyWlLk6GJQsqaUBKTNV-1">
          <mxGeometry x="565" y="240" width="80" height="40" as="geometry" />
        </mxCell>
        <mxCell id="UN8iPi8M0M4lKCketsCk-26" value="" style="rounded=0;whiteSpace=wrap;html=1;labelBackgroundColor=none;fillColor=#BC6C25;strokeColor=#DDA15E;fontColor=#FEFAE0;" vertex="1" parent="WIyWlLk6GJQsqaUBKTNV-1">
          <mxGeometry x="405" y="490" width="320" height="320" as="geometry" />
        </mxCell>
        <mxCell id="UN8iPi8M0M4lKCketsCk-28" value="" style="endArrow=none;dashed=1;html=1;dashPattern=1 3;strokeWidth=2;rounded=0;exitX=0;exitY=0.25;exitDx=0;exitDy=0;entryX=1;entryY=0.25;entryDx=0;entryDy=0;labelBackgroundColor=none;strokeColor=#DDA15E;fontColor=default;" edge="1" parent="WIyWlLk6GJQsqaUBKTNV-1" source="UN8iPi8M0M4lKCketsCk-26" target="UN8iPi8M0M4lKCketsCk-26">
          <mxGeometry width="50" height="50" relative="1" as="geometry">
            <mxPoint x="485" y="580" as="sourcePoint" />
            <mxPoint x="535" y="530" as="targetPoint" />
          </mxGeometry>
        </mxCell>
        <mxCell id="UN8iPi8M0M4lKCketsCk-31" value="" style="endArrow=none;dashed=1;html=1;dashPattern=1 3;strokeWidth=2;rounded=0;exitX=0;exitY=0.25;exitDx=0;exitDy=0;entryX=1;entryY=0.25;entryDx=0;entryDy=0;labelBackgroundColor=none;strokeColor=#DDA15E;fontColor=default;" edge="1" parent="WIyWlLk6GJQsqaUBKTNV-1">
          <mxGeometry width="50" height="50" relative="1" as="geometry">
            <mxPoint x="405" y="649.52" as="sourcePoint" />
            <mxPoint x="725" y="649.52" as="targetPoint" />
          </mxGeometry>
        </mxCell>
        <mxCell id="UN8iPi8M0M4lKCketsCk-33" value="" style="endArrow=none;dashed=1;html=1;dashPattern=1 3;strokeWidth=2;rounded=0;exitX=0;exitY=0.25;exitDx=0;exitDy=0;entryX=1;entryY=0.25;entryDx=0;entryDy=0;labelBackgroundColor=none;strokeColor=#DDA15E;fontColor=default;" edge="1" parent="WIyWlLk6GJQsqaUBKTNV-1">
          <mxGeometry width="50" height="50" relative="1" as="geometry">
            <mxPoint x="405" y="730" as="sourcePoint" />
            <mxPoint x="725" y="730" as="targetPoint" />
          </mxGeometry>
        </mxCell>
        <mxCell id="UN8iPi8M0M4lKCketsCk-35" value="" style="endArrow=none;dashed=1;html=1;dashPattern=1 3;strokeWidth=2;rounded=0;exitX=0.25;exitY=0;exitDx=0;exitDy=0;entryX=0.25;entryY=1;entryDx=0;entryDy=0;labelBackgroundColor=none;strokeColor=#DDA15E;fontColor=default;" edge="1" parent="WIyWlLk6GJQsqaUBKTNV-1" source="UN8iPi8M0M4lKCketsCk-26" target="UN8iPi8M0M4lKCketsCk-26">
          <mxGeometry width="50" height="50" relative="1" as="geometry">
            <mxPoint x="415" y="580" as="sourcePoint" />
            <mxPoint x="735" y="580" as="targetPoint" />
          </mxGeometry>
        </mxCell>
        <mxCell id="UN8iPi8M0M4lKCketsCk-36" value="" style="endArrow=none;dashed=1;html=1;dashPattern=1 3;strokeWidth=2;rounded=0;exitX=0.25;exitY=0;exitDx=0;exitDy=0;entryX=0.25;entryY=1;entryDx=0;entryDy=0;labelBackgroundColor=none;strokeColor=#DDA15E;fontColor=default;" edge="1" parent="WIyWlLk6GJQsqaUBKTNV-1">
          <mxGeometry width="50" height="50" relative="1" as="geometry">
            <mxPoint x="565" y="490" as="sourcePoint" />
            <mxPoint x="565" y="810" as="targetPoint" />
          </mxGeometry>
        </mxCell>
        <mxCell id="UN8iPi8M0M4lKCketsCk-37" value="" style="endArrow=none;dashed=1;html=1;dashPattern=1 3;strokeWidth=2;rounded=0;exitX=0.25;exitY=0;exitDx=0;exitDy=0;entryX=0.25;entryY=1;entryDx=0;entryDy=0;labelBackgroundColor=none;strokeColor=#DDA15E;fontColor=default;" edge="1" parent="WIyWlLk6GJQsqaUBKTNV-1">
          <mxGeometry width="50" height="50" relative="1" as="geometry">
            <mxPoint x="645" y="490" as="sourcePoint" />
            <mxPoint x="645" y="810" as="targetPoint" />
          </mxGeometry>
        </mxCell>
        <mxCell id="UN8iPi8M0M4lKCketsCk-52" value="" style="ellipse;whiteSpace=wrap;html=1;fillColor=#e3c800;fontColor=#000000;strokeColor=#B09500;labelBackgroundColor=none;" vertex="1" parent="WIyWlLk6GJQsqaUBKTNV-1">
          <mxGeometry x="475" y="560" width="20" height="20" as="geometry" />
        </mxCell>
        <mxCell id="UN8iPi8M0M4lKCketsCk-54" value="" style="ellipse;whiteSpace=wrap;html=1;fillColor=#e3c800;fontColor=#000000;strokeColor=#B09500;labelBackgroundColor=none;" vertex="1" parent="WIyWlLk6GJQsqaUBKTNV-1">
          <mxGeometry x="555" y="560" width="20" height="20" as="geometry" />
        </mxCell>
        <mxCell id="UN8iPi8M0M4lKCketsCk-55" value="" style="ellipse;whiteSpace=wrap;html=1;fillColor=#e3c800;fontColor=#000000;strokeColor=#B09500;labelBackgroundColor=none;" vertex="1" parent="WIyWlLk6GJQsqaUBKTNV-1">
          <mxGeometry x="635" y="560" width="20" height="20" as="geometry" />
        </mxCell>
        <mxCell id="UN8iPi8M0M4lKCketsCk-56" value="&lt;b&gt;&lt;font face=&quot;Times New Roman&quot;&gt;1&lt;/font&gt;&lt;/b&gt;" style="text;html=1;strokeColor=none;fillColor=none;align=center;verticalAlign=middle;whiteSpace=wrap;rounded=0;labelBackgroundColor=none;fontColor=#FEFAE0;" vertex="1" parent="WIyWlLk6GJQsqaUBKTNV-1">
          <mxGeometry x="495" y="570" width="10" height="20" as="geometry" />
        </mxCell>
        <mxCell id="UN8iPi8M0M4lKCketsCk-58" value="&lt;b&gt;&lt;font face=&quot;Times New Roman&quot;&gt;2&lt;/font&gt;&lt;/b&gt;" style="text;html=1;strokeColor=none;fillColor=none;align=center;verticalAlign=middle;whiteSpace=wrap;rounded=0;labelBackgroundColor=none;fontColor=#FEFAE0;" vertex="1" parent="WIyWlLk6GJQsqaUBKTNV-1">
          <mxGeometry x="575" y="570" width="10" height="20" as="geometry" />
        </mxCell>
        <mxCell id="UN8iPi8M0M4lKCketsCk-59" value="&lt;b&gt;&lt;font face=&quot;Times New Roman&quot;&gt;3&lt;/font&gt;&lt;/b&gt;" style="text;html=1;strokeColor=none;fillColor=none;align=center;verticalAlign=middle;whiteSpace=wrap;rounded=0;labelBackgroundColor=none;fontColor=#FEFAE0;" vertex="1" parent="WIyWlLk6GJQsqaUBKTNV-1">
          <mxGeometry x="655" y="570" width="10" height="20" as="geometry" />
        </mxCell>
        <mxCell id="UN8iPi8M0M4lKCketsCk-63" value="&lt;h1 style=&quot;text-align: center;&quot;&gt;Мониторинг природной среды&lt;/h1&gt;&lt;p&gt;Статистика преобладания животных в различных местах заповедника за период 30.05.2023 - 30.06.2023&lt;/p&gt;" style="text;html=1;strokeColor=default;fillColor=default;spacing=5;spacingTop=-20;whiteSpace=wrap;overflow=hidden;rounded=1;labelBackgroundColor=none;fontColor=#FEFAE0;strokeWidth=3;" vertex="1" parent="WIyWlLk6GJQsqaUBKTNV-1">
          <mxGeometry x="405" y="370" width="320" height="120" as="geometry" />
        </mxCell>
        <mxCell id="UN8iPi8M0M4lKCketsCk-64" value="Медведи" style="text;html=1;strokeColor=none;fillColor=none;align=center;verticalAlign=middle;whiteSpace=wrap;rounded=0;labelBackgroundColor=none;fontColor=#FEFAE0;" vertex="1" parent="WIyWlLk6GJQsqaUBKTNV-1">
          <mxGeometry x="415" y="510" width="60" height="30" as="geometry" />
        </mxCell>
        <mxCell id="UN8iPi8M0M4lKCketsCk-65" value="Волки" style="text;html=1;strokeColor=none;fillColor=none;align=center;verticalAlign=middle;whiteSpace=wrap;rounded=0;labelBackgroundColor=none;fontColor=#FEFAE0;" vertex="1" parent="WIyWlLk6GJQsqaUBKTNV-1">
          <mxGeometry x="495" y="510" width="60" height="30" as="geometry" />
        </mxCell>
        <mxCell id="UN8iPi8M0M4lKCketsCk-66" value="Лоси" style="text;html=1;strokeColor=none;fillColor=none;align=center;verticalAlign=middle;whiteSpace=wrap;rounded=0;labelBackgroundColor=none;fontColor=#FEFAE0;" vertex="1" parent="WIyWlLk6GJQsqaUBKTNV-1">
          <mxGeometry x="575" y="510" width="60" height="30" as="geometry" />
        </mxCell>
        <mxCell id="UN8iPi8M0M4lKCketsCk-67" value="" style="endArrow=none;html=1;rounded=0;labelBackgroundColor=none;strokeColor=#DDA15E;fontColor=default;" edge="1" parent="WIyWlLk6GJQsqaUBKTNV-1">
          <mxGeometry width="50" height="50" relative="1" as="geometry">
            <mxPoint x="265" y="290" as="sourcePoint" />
            <mxPoint x="205" y="200" as="targetPoint" />
          </mxGeometry>
        </mxCell>
        <mxCell id="UN8iPi8M0M4lKCketsCk-71" value="" style="shape=flexArrow;endArrow=classic;startArrow=classic;html=1;rounded=0;strokeColor=#DDA15E;fontColor=#FEFAE0;fillColor=#BC6C25;" edge="1" parent="WIyWlLk6GJQsqaUBKTNV-1">
          <mxGeometry width="100" height="100" relative="1" as="geometry">
            <mxPoint x="560" y="360" as="sourcePoint" />
            <mxPoint x="600" y="290" as="targetPoint" />
          </mxGeometry>
        </mxCell>
      </root>
    </mxGraphModel>
  </diagram>
</mxfile>
